<?xml version="1.0" encoding="UTF-8" standalone="no"?>
<!-- Uploaded to: SVG Repo, www.svgrepo.com, Generator: SVG Repo Mixer Tools -->

<svg
   fill="#000000"
   width="30px"
   height="30px"
   viewBox="0 0 24 24"
   data-name="Layer 1"
   version="1.1"
   id="svg1"
   sodipodi:docname="java-script-svgrepo-com1.svg"
   inkscape:export-filename="java-script-svgrepo-com2.svg"
   inkscape:export-xdpi="96"
   inkscape:export-ydpi="96"
   inkscape:version="1.3.2 (091e20e, 2023-11-25, custom)"
   xmlns:inkscape="http://www.inkscape.org/namespaces/inkscape"
   xmlns:sodipodi="http://sodipodi.sourceforge.net/DTD/sodipodi-0.dtd"
   xmlns:xlink="http://www.w3.org/1999/xlink"
   xmlns="http://www.w3.org/2000/svg"
   xmlns:svg="http://www.w3.org/2000/svg">
  <defs
     id="defs1">
    <linearGradient
       id="linearGradient2"
       inkscape:collect="always">
      <stop
         style="stop-color:#cc0000;stop-opacity:1;"
         offset="0"
         id="stop2" />
      <stop
         style="stop-color:#60d900;stop-opacity:0;"
         offset="1"
         id="stop3" />
    </linearGradient>
    <linearGradient
       inkscape:collect="always"
       xlink:href="#linearGradient2"
       id="linearGradient3"
       x1="3.5048955"
       y1="12.243922"
       x2="21.653946"
       y2="12.243922"
       gradientUnits="userSpaceOnUse" />
    <filter
       inkscape:collect="always"
       style="color-interpolation-filters:sRGB"
       id="filter3"
       x="-0.00944492"
       y="-0.0085708598"
       width="1.0188898"
       height="1.0171417">
      <feGaussianBlur
         inkscape:collect="always"
         stdDeviation="0.071423468"
         id="feGaussianBlur3" />
    </filter>
    <linearGradient
       inkscape:collect="always"
       xlink:href="#linearGradient2"
       id="linearGradient4"
       gradientUnits="userSpaceOnUse"
       x1="3.5048955"
       y1="12.243922"
       x2="21.653946"
       y2="12.243922"
       gradientTransform="translate(0.18,0.48)" />
  </defs>
  <sodipodi:namedview
     id="namedview1"
     pagecolor="#ffffff"
     bordercolor="#999999"
     borderopacity="1"
     inkscape:showpageshadow="2"
     inkscape:pageopacity="0"
     inkscape:pagecheckerboard="true"
     inkscape:deskcolor="#d1d1d1"
     inkscape:zoom="0.98375"
     inkscape:cx="400.50826"
     inkscape:cy="400"
     inkscape:window-width="1920"
     inkscape:window-height="1001"
     inkscape:window-x="-9"
     inkscape:window-y="-9"
     inkscape:window-maximized="1"
     inkscape:current-layer="svg1" />
  <path
     d="m 13.938,15.0629 a 4.06111,4.06111 0 0 1 -2.18725,-0.39825 1.4389,1.4389 0 0 1 -0.53547,-1.01019 0.22184,0.22184 0 0 0 -0.22662,-0.21942 c -0.31659,-0.0038 -0.63312,-0.003 -0.94965,-4.3e-4 a 0.2113,0.2113 0 0 0 -0.23138,0.18628 2.33854,2.33854 0 0 0 0.75305,1.84454 3.99135,3.99135 0 0 0 2.22827,0.8382 8.06151,8.06151 0 0 0 2.53308,-0.10755 3.12591,3.12591 0 0 0 1.67823,-0.90442 2.33824,2.33824 0 0 0 0.396,-2.23077 1.869,1.869 0 0 0 -1.2304,-1.09454 c -1.28077,-0.4494 -2.66431,-0.41541 -3.97,-0.7569 -0.22668,-0.07135 -0.50366,-0.1488 -0.60467,-0.38879 a 0.85461,0.85461 0 0 1 0.28418,-0.95478 2.5576,2.5576 0 0 1 1.34875,-0.33581 4.07051,4.07051 0 0 1 1.88416,0.26959 1.43564,1.43564 0 0 1 0.68677,0.99219 0.243,0.243 0 0 0 0.2276,0.23565 c 0.31433,0.0064 0.62878,0.0017 0.94311,0.0021 a 0.22791,0.22791 0 0 0 0.24732,-0.16772 2.43369,2.43369 0 0 0 -1.18665,-2.106 5.8791,5.8791 0 0 0 -3.2182,-0.49243 v -8e-5 a 3.50546,3.50546 0 0 0 -2.17615,0.87438 2.1746,2.1746 0 0 0 -0.43438,2.26264 1.92964,1.92964 0 0 0 1.21838,1.06177 c 1.27649,0.46106 2.67554,0.31311 3.96442,0.72082 0.25116,0.08521 0.54364,0.21552 0.6206,0.49506 a 0.9907,0.9907 0 0 1 -0.26965,0.9462 2.97065,2.97065 0 0 1 -1.79345,0.43866 z m 5.81891,-8.44537 q -3.73837,-2.114 -7.47845,-4.22418 a 1.67742,1.67742 0 0 0 -1.63733,0 Q 6.9156,4.49715 3.18968,6.60075 a 1.54242,1.54242 0 0 0 -0.8042,1.34271 v 8.47424 a 1.55266,1.55266 0 0 0 0.8352,1.355 c 0.71351,0.38837 1.40674,0.81629 2.13318,1.17884 A 3.06373,3.06373 0 0 0 8.09208,19.02679 2.1275,2.1275 0 0 0 9.0869,17.10565 C 9.09245,14.30896 9.08775,11.51214 9.08903,8.71539 A 0.21981,0.21981 0 0 0 8.88176,8.46124 C 8.56437,8.45611 8.2465,8.45824 7.92912,8.46039 a 0.20935,0.20935 0 0 0 -0.228,0.21368 c -0.00427,2.77875 8.6e-4,5.55829 -0.00256,8.33746 a 0.94053,0.94053 0 0 1 -0.609,0.88373 1.53242,1.53242 0 0 1 -1.23993,-0.16595 q -0.99152,-0.56 -1.983,-1.11988 A 0.23714,0.23714 0 0 1 3.73199,16.37414 q 0,-4.19383 0,-8.38726 a 0.2589,0.2589 0 0 1 0.157,-0.2602 Q 7.6023,5.6353 11.31419,3.53953 a 0.258,0.258 0 0 1 0.29163,4.3e-4 Q 15.319,5.632 19.03184,7.7255 a 0.262,0.262 0 0 1 0.15613,0.26142 q -6.4e-4,4.19308 -8.5e-4,8.38684 a 0.242,0.242 0 0 1 -0.13294,0.23828 q -3.65643,2.06753 -7.31677,4.12909 c -0.11658,0.06494 -0.25458,0.16943 -0.39093,0.09076 -0.6391,-0.36176 -1.27039,-0.73755 -1.90735,-1.10273 A 0.20589,0.20589 0 0 0 9.20945,19.71537 5.21834,5.21834 0 0 1 8.32737,20.12699 C 8.18931,20.1829 8.01945,20.19883 7.92442,20.32688 a 1.31566,1.31566 0 0 0 0.43127,0.31061 q 1.11741,0.647 2.236,1.29285 a 1.62967,1.62967 0 0 0 1.65539,0.046 q 3.7261,-2.101 7.45185,-4.20392 a 1.55627,1.55627 0 0 0 0.83563,-1.35474 V 7.94346 A 1.53956,1.53956 0 0 0 19.75694,6.61753 Z"
     id="path4"
     style="fill:#ffffff;fill-opacity:1" />
  <path
     d="m 15.057416,15.126864 a 4.06111,4.06111 0 0 1 -2.18725,-0.39825 1.4389,1.4389 0 0 1 -0.53547,-1.01019 0.22184,0.22184 0 0 0 -0.22662,-0.21942 c -0.31659,-0.0038 -0.63312,-0.003 -0.94965,-4.3e-4 a 0.2113,0.2113 0 0 0 -0.23138,0.18628 2.33854,2.33854 0 0 0 0.75305,1.84454 3.99135,3.99135 0 0 0 2.22827,0.8382 8.06151,8.06151 0 0 0 2.53308,-0.10755 3.12591,3.12591 0 0 0 1.67823,-0.90442 2.33824,2.33824 0 0 0 0.396,-2.23077 1.869,1.869 0 0 0 -1.2304,-1.09454 c -1.28077,-0.4494 -2.66431,-0.41541 -3.97,-0.7569 -0.22668,-0.07135 -0.50366,-0.1488 -0.60467,-0.38879 a 0.85461,0.85461 0 0 1 0.28418,-0.9547796 2.5576,2.5576 0 0 1 1.34875,-0.33581 4.07051,4.07051 0 0 1 1.88416,0.26959 1.43564,1.43564 0 0 1 0.68677,0.9921896 0.243,0.243 0 0 0 0.2276,0.23565 c 0.31433,0.0064 0.62878,0.0017 0.94311,0.0021 a 0.22791,0.22791 0 0 0 0.24732,-0.16772 2.43369,2.43369 0 0 0 -1.18665,-2.1059996 5.8791,5.8791 0 0 0 -3.2182,-0.49243 v -8e-5 a 3.50546,3.50546 0 0 0 -2.17615,0.87438 2.1746,2.1746 0 0 0 -0.43438,2.2626396 1.92964,1.92964 0 0 0 1.21838,1.06177 c 1.27649,0.46106 2.67554,0.31311 3.96442,0.72082 0.25116,0.08521 0.54364,0.21552 0.6206,0.49506 a 0.9907,0.9907 0 0 1 -0.26965,0.94616 2.97065,2.97065 0 0 1 -1.79345,0.43866 z m 5.81891,-8.4453696 q -3.73837,-2.114 -7.47845,-4.22418 a 1.67742,1.67742 0 0 0 -1.63733,0 q -3.7255305,2.1038 -7.4514505,4.2074 a 1.54242,1.54242 0 0 0 -0.8042,1.34271 v 8.4742396 a 1.55266,1.55266 0 0 0 0.8352,1.355 c 0.71351,0.38837 1.40674,0.81629 2.13318,1.17884 a 3.06373,3.06373 0 0 0 2.73822,0.07525 2.1275,2.1275 0 0 0 0.9948205,-1.92114 c 0.0056,-2.79669 8.5e-4,-5.59351 0.0021,-8.3902596 a 0.21981,0.21981 0 0 0 -0.20727,-0.25415 c -0.3173905,-0.00513 -0.6352605,-0.003 -0.9526405,-8.5e-4 a 0.20935,0.20935 0 0 0 -0.228,0.21368 c -0.00427,2.7787496 8.6e-4,5.5582896 -0.00256,8.3374596 a 0.94053,0.94053 0 0 1 -0.609,0.88373 1.53242,1.53242 0 0 1 -1.23993,-0.16595 q -0.99152,-0.56 -1.983,-1.11988 a 0.23714,0.23714 0 0 1 -0.13464,-0.23529 q 0,-4.19383 0,-8.3872596 a 0.2589,0.2589 0 0 1 0.157,-0.2602 q 3.71331,-2.09138 7.4252005,-4.18715 a 0.258,0.258 0 0 1 0.29163,4.3e-4 q 3.71318,2.09204 7.42602,4.18554 a 0.262,0.262 0 0 1 0.15613,0.26142 q -6.4e-4,4.1930796 -8.5e-4,8.3868396 a 0.242,0.242 0 0 1 -0.13294,0.23828 q -3.65643,2.06753 -7.31677,4.12909 c -0.11658,0.06494 -0.25458,0.16943 -0.39093,0.09076 -0.6391,-0.36176 -1.27039,-0.73755 -1.90735,-1.10273 a 0.20589,0.20589 0 0 0 -0.22968,-0.01379 5.21834,5.21834 0 0 1 -0.8820805,0.41162 c -0.13806,0.05591 -0.30792,0.07184 -0.40295,0.19989 a 1.31566,1.31566 0 0 0 0.43127,0.31061 q 1.1174105,0.647 2.2360005,1.29285 a 1.62967,1.62967 0 0 0 1.65539,0.046 q 3.7261,-2.101 7.45185,-4.20392 a 1.55627,1.55627 0 0 0 0.83563,-1.35474 V 8.0074244 a 1.53956,1.53956 0 0 0 -0.77762,-1.32593 z"
     id="path2"
     style="fill:url(#linearGradient3);opacity:1;filter:url(#filter3)" />
  <path
     d="m 15.237416,15.606864 a 4.06111,4.06111 0 0 1 -2.18725,-0.39825 1.4389,1.4389 0 0 1 -0.53547,-1.01019 0.22184,0.22184 0 0 0 -0.22662,-0.21942 c -0.31659,-0.0038 -0.63312,-0.003 -0.94965,-4.3e-4 a 0.2113,0.2113 0 0 0 -0.23138,0.18628 2.33854,2.33854 0 0 0 0.75305,1.84454 3.99135,3.99135 0 0 0 2.22827,0.8382 8.06151,8.06151 0 0 0 2.53308,-0.10755 3.12591,3.12591 0 0 0 1.67823,-0.90442 2.33824,2.33824 0 0 0 0.396,-2.23077 1.869,1.869 0 0 0 -1.2304,-1.09454 c -1.28077,-0.4494 -2.66431,-0.41541 -3.97,-0.7569 -0.22668,-0.07135 -0.50366,-0.1488 -0.60467,-0.38879 a 0.85461,0.85461 0 0 1 0.28418,-0.95478 2.5576,2.5576 0 0 1 1.34875,-0.33581 4.07051,4.07051 0 0 1 1.88416,0.26959 1.43564,1.43564 0 0 1 0.68677,0.99219 0.243,0.243 0 0 0 0.2276,0.23565 c 0.31433,0.0064 0.62878,0.0017 0.94311,0.0021 a 0.22791,0.22791 0 0 0 0.24732,-0.16772 2.43369,2.43369 0 0 0 -1.18665,-2.1059996 5.8791,5.8791 0 0 0 -3.2182,-0.49243 v -8e-5 a 3.50546,3.50546 0 0 0 -2.17615,0.87438 2.1746,2.1746 0 0 0 -0.43438,2.2626396 1.92964,1.92964 0 0 0 1.21838,1.06177 c 1.27649,0.46106 2.67554,0.31311 3.96442,0.72082 0.25116,0.08521 0.54364,0.21552 0.6206,0.49506 a 0.9907,0.9907 0 0 1 -0.26965,0.94616 2.97065,2.97065 0 0 1 -1.79345,0.43866 z m 5.81891,-8.4453696 q -3.73837,-2.114 -7.47845,-4.22418 a 1.67742,1.67742 0 0 0 -1.63733,0 q -3.7255305,2.1038 -7.4514505,4.2074 a 1.54242,1.54242 0 0 0 -0.8042,1.34271 v 8.4742396 a 1.55266,1.55266 0 0 0 0.8352,1.355 c 0.71351,0.38837 1.40674,0.81629 2.13318,1.17884 a 3.06373,3.06373 0 0 0 2.73822,0.07525 2.1275,2.1275 0 0 0 0.9948205,-1.92114 c 0.0056,-2.79669 8.5e-4,-5.59351 0.0021,-8.3902596 a 0.21981,0.21981 0 0 0 -0.20727,-0.25415 c -0.3173905,-0.00513 -0.6352605,-0.003 -0.9526405,-8.5e-4 a 0.20935,0.20935 0 0 0 -0.228,0.21368 c -0.00427,2.7787496 8.6e-4,5.5582896 -0.00256,8.3374596 a 0.94053,0.94053 0 0 1 -0.609,0.88373 1.53242,1.53242 0 0 1 -1.23993,-0.16595 q -0.99152,-0.56 -1.983,-1.11988 a 0.23714,0.23714 0 0 1 -0.13464,-0.23529 q 0,-4.19383 0,-8.3872596 a 0.2589,0.2589 0 0 1 0.157,-0.2602 q 3.71331,-2.09138 7.4252005,-4.18715 a 0.258,0.258 0 0 1 0.29163,4.3e-4 q 3.71318,2.09204 7.42602,4.18554 a 0.262,0.262 0 0 1 0.15613,0.26142 q -6.4e-4,4.1930796 -8.5e-4,8.3868396 a 0.242,0.242 0 0 1 -0.13294,0.23828 q -3.65643,2.06753 -7.31677,4.12909 c -0.11658,0.06494 -0.25458,0.16943 -0.39093,0.09076 -0.6391,-0.36176 -1.27039,-0.73755 -1.90735,-1.10273 a 0.20589,0.20589 0 0 0 -0.22968,-0.01379 5.21834,5.21834 0 0 1 -0.8820805,0.41162 c -0.13806,0.05591 -0.30792,0.07184 -0.40295,0.19989 a 1.31566,1.31566 0 0 0 0.43127,0.31061 q 1.1174105,0.647 2.2360005,1.29285 a 1.62967,1.62967 0 0 0 1.65539,0.046 q 3.7261,-2.101 7.45185,-4.20392 a 1.55627,1.55627 0 0 0 0.83563,-1.35474 V 8.4874244 a 1.53956,1.53956 0 0 0 -0.77762,-1.32593 z"
     id="path3"
     style="opacity:1;fill:url(#linearGradient4);filter:url(#filter3)" />
  <path
     d="M14.478,14.8829a4.06111,4.06111,0,0,1-2.18725-.39825,1.4389,1.4389,0,0,1-.53547-1.01019.22184.22184,0,0,0-.22662-.21942c-.31659-.00385-.63312-.003-.94965-.00043a.2113.2113,0,0,0-.23138.18628,2.33854,2.33854,0,0,0,.75305,1.84454,3.99135,3.99135,0,0,0,2.22827.8382,8.06151,8.06151,0,0,0,2.53308-.10755,3.12591,3.12591,0,0,0,1.67823-.90442,2.33824,2.33824,0,0,0,.396-2.23077,1.869,1.869,0,0,0-1.2304-1.09454c-1.28077-.4494-2.66431-.41541-3.97-.7569-.22668-.07135-.50366-.1488-.60467-.38879a.85461.85461,0,0,1,.28418-.95478,2.5576,2.5576,0,0,1,1.34875-.33581,4.07051,4.07051,0,0,1,1.88416.26959,1.43564,1.43564,0,0,1,.68677.99219.243.243,0,0,0,.2276.23565c.31433.00641.62878.00171.94311.00214a.22791.22791,0,0,0,.24732-.16772,2.43369,2.43369,0,0,0-1.18665-2.106,5.8791,5.8791,0,0,0-3.2182-.49243V8.08341a3.50546,3.50546,0,0,0-2.17615.87438,2.1746,2.1746,0,0,0-.43438,2.26264,1.92964,1.92964,0,0,0,1.21838,1.06177c1.27649.46106,2.67554.31311,3.96442.72082.25116.08521.54364.21552.6206.49506a.9907.9907,0,0,1-.26965.94616A2.97065,2.97065,0,0,1,14.478,14.8829Zm5.81891-8.44537q-3.73837-2.114-7.47845-4.22418a1.67742,1.67742,0,0,0-1.63733,0Q7.4556,4.31715,3.72968,6.42075a1.54242,1.54242,0,0,0-.8042,1.34271V16.2377a1.55266,1.55266,0,0,0,.8352,1.355c.71351.38837,1.40674.81629,2.13318,1.17884a3.06373,3.06373,0,0,0,2.73822.07525,2.1275,2.1275,0,0,0,.99482-1.92114c.00555-2.79669.00085-5.59351.00213-8.39026a.21981.21981,0,0,0-.20727-.25415c-.31739-.00513-.63526-.003-.95264-.00085a.20935.20935,0,0,0-.228.21368c-.00427,2.77875.00086,5.55829-.00256,8.33746a.94053.94053,0,0,1-.609.88373,1.53242,1.53242,0,0,1-1.23993-.16595q-.99152-.56-1.983-1.11988a.23714.23714,0,0,1-.13464-.23529q0-4.19383,0-8.38726a.2589.2589,0,0,1,.157-.2602Q8.1423,5.4553,11.85419,3.35953a.258.258,0,0,1,.29163.00043Q15.859,5.452,19.57184,7.5455a.262.262,0,0,1,.15613.26142Q19.72733,12,19.72712,16.19376a.242.242,0,0,1-.13294.23828q-3.65643,2.06753-7.31677,4.12909c-.11658.06494-.25458.16943-.39093.09076-.6391-.36176-1.27039-.73755-1.90735-1.10273a.20589.20589,0,0,0-.22968-.01379,5.21834,5.21834,0,0,1-.88208.41162c-.13806.05591-.30792.07184-.40295.19989a1.31566,1.31566,0,0,0,.43127.31061q1.11741.647,2.236,1.29285a1.62967,1.62967,0,0,0,1.65539.046q3.7261-2.101,7.45185-4.20392a1.55627,1.55627,0,0,0,.83563-1.35474V7.76346A1.53956,1.53956,0,0,0,20.29694,6.43753Z"
     id="path1" />
</svg>
